<svg xmlns="http://www.w3.org/2000/svg" xml:space="preserve" viewBox="0 0 8.47 8.47">
  <g paint-order="fill markers stroke">
    <path fill="none" d="M0 0h8.47v8.47H0z"/>
    <g stroke-width=".88">
      <g stroke-width="4.6">
        <path fill="#1b3057" d="m.42 6.19-.19 1.5.12.35h.64a1.04 1.04 0 0 0 .75-.3c.07-.08.13-.19.18-.28l.35-.16h4.22c.06.12.1.25.19.34v.01c.15.15.31.25.47.31.17.06.33.08.5.08h.47l.11-.34L8 6.17z"/>
        <path fill="#243f72" d="m4.15.43-1.48 1.8L1.3.71.83 5.66a.2.2 0 0 1-.2.18h-.2L.23 7.7H1a1.06 1.06 0 0 0 .74-.3c.09-.09.14-.2.2-.29l.34-.16H6.5c.06.12.1.25.19.35.15.16.31.26.47.31.17.07.33.09.5.09h.58L8 5.83h-.22a.2.2 0 0 1-.2-.18L6.99.75 5.68 2.23z"/>
        <path fill="#1b3057" d="m1.38 3.8-.04.44.08.27h5.56l.07-.27L7 3.79zm1.4 1.41-.05 1.1v.26h.43l.03-.83a.44.44 0 0 1 .1-.1.2.2 0 0 1 .11-.05.1.1 0 0 1 .07.03l.02.1-.01.6v.25h.44v-1l-.37-.32zm3.24-.26.1 1.62h.43l.03-.25-.07-.58.1-.1c.09-.1.12 0 .14.09l.1.84c.04.28.2.58.47.67.1.04.13.05.25.05l.08-.23-.06-.23c-.08 0-.14-.02-.17-.06-.04-.04-.06-.1-.08-.2l-.11-1zm-4.18.26L1.7 6.53l.02.24.45-.2.04-.72c.01-.05.03-.09.06-.11a.22.22 0 0 1 .1-.07.37.37 0 0 1 .11-.02h.14l.02-.44zm-.16-.23-.54 1.63-.27.22-.05.23.05.23h.12a.55.55 0 0 0 .37-.13c.04-.05.08-.1.11-.17a.62.62 0 0 0 .06-.21zM4 5.21l.35 1.36h.5L4.98 6l.18.57h.48L5.9 5.2l.02-.26-.58.7-.72.02-.64-.72z"/>
        <path fill="#42cafd" d="M4.15 1.06 2.7 2.83 1.62 1.6l-.28 2.64h5.71L6.7 1.6 5.65 2.83zm-.57 3.85a.74.74 0 0 0-.38.13l-.03-.1H2.8l-.06 1.38h.44l.02-.85a.44.44 0 0 1 .1-.1.2.2 0 0 1 .11-.04c.03 0 .05 0 .07.03l.02.1-.01.86h.44V5.3a.48.48 0 0 0-.03-.18.32.32 0 0 0-.07-.12.25.25 0 0 0-.1-.07.34.34 0 0 0-.14-.03zm3.23 0a.45.45 0 0 0-.18.04.68.68 0 0 0-.18.12l-.01-.13h-.42l.12 1.38h.44l-.09-.84a.37.37 0 0 1 .1-.11.17.17 0 0 1 .1-.04.1.1 0 0 1 .06.03c.02.02.04.05.04.1l.1.86.07.32a.6.6 0 0 0 .36.37c.1.04.2.05.33.05l-.07-.48c-.08 0-.13-.02-.17-.06-.04-.03-.07-.1-.08-.2L7.2 5.3a.56.56 0 0 0-.05-.18.38.38 0 0 0-.1-.12.37.37 0 0 0-.25-.1zm-4.17.03-.13.01a.3.3 0 0 0-.18.12.78.78 0 0 0-.07.12l.01-.25h-.41L1.7 6.53l.47-.21.05-.73c.01-.05.03-.1.06-.12a.22.22 0 0 1 .1-.06.36.36 0 0 1 .11-.03h.14l.02-.44h-.02zm-.95 0h-.42L1.11 6.4c-.01.07-.03.12-.06.15a.15.15 0 0 1-.1.04H.89l-.06.48H1a.54.54 0 0 0 .37-.14c.05-.04.09-.1.12-.16a.66.66 0 0 0 .05-.22zm2.28 0 .37 1.38h.5l.13-.59.19.59h.47l.29-1.38h-.45l-.14.68-.21-.68h-.33l-.18.7-.19-.7z"/>
      </g>
      <g> 
        <path fill="#ffce00" d="m3.3 2.77.85-1.02L5 2.77 4.15 3.8z"/>
        <path fill="#f4b41b" d="m4.15 2.35.85.42-.85 1.02z"/>
        <path fill="#f8f8f8" d="M4.15 1.75 5 2.77l-.85-.42z"/>  
        <path fill="#f47e1b" d="m3.3 2.77.85-.42V3.8z"/>
      </g>
    </g>
  </g>
</svg>