<svg xmlns="http://www.w3.org/2000/svg" xml:space="preserve" viewBox="0 0 50.8 50.8">
  <defs>
    <filter id="a" width="1.52" height="1.59" x="-.26" y="-.29" color-interpolation-filters="sRGB">
      <feGaussianBlur stdDeviation="3.1"/>
    </filter>
  </defs>
  <g paint-order="fill markers stroke">
    <path 
      fill="#243f72" 
      stroke="#243f72"  
      stroke-width="1.29" 
      d="m-96.98 145.36-8.1 9.65-4.92-7.81-1.7 14.5h29.43l-1.91-15.56-4.72 8.87zm-3.12 19.27v0a3.63 3.63 0 0 0-1.89.54l-.16-.41h-1.91v5.5h2.07v-3.32c.15-.16.31-.3.5-.4.2-.12.37-.18.53-.18.12 0 .23.04.32.13.09.08.13.22.13.4v3.36h2.08v-3.97c0-.28-.05-.52-.14-.73a1.3 1.3 0 0 0-.35-.5 1.3 1.3 0 0 0-.52-.31 2 2 0 0 0-.66-.1zm16.17 0c-.3 0-.6.06-.93.17-.33.11-.65.27-.96.48v-.52h-2.08v5.5h2.08v-3.29c.14-.18.31-.32.5-.44.2-.1.37-.17.52-.17.13 0 .24.04.33.13.09.08.13.22.13.4v3.36c0 .45.05.85.15 1.2.1.33.27.62.5.85.25.23.57.4.96.51.4.12.88.18 1.46.18v-1.75c-.35 0-.6-.07-.77-.22-.15-.14-.23-.4-.23-.77v-3.97c0-.28-.04-.52-.13-.73a1.3 1.3 0 0 0-.35-.5 1.31 1.31 0 0 0-.52-.31 2 2 0 0 0-.66-.1zm-20.87.12c-.25 0-.46.02-.64.04-.2.04-.38.1-.52.18a1.1 1.1 0 0 0-.38.3c-.1.14-.2.31-.3.51h-.02v-1.02h-2.07l-.07 6.28 2.14-.79v-2.82a.96.96 0 0 1 .7-.74c.17-.06.36-.1.58-.1l.69-.02v-1.82h-.11zm-4.77 0h-2.07l-.07 5.78c0 .27-.06.45-.17.55a.62.62 0 0 1-.17.1.78.78 0 0 1-.26.05l-.39.01V173h.8c.32 0 .62-.04.9-.13.28-.08.52-.2.72-.37a1.76 1.76 0 0 0 .64-1.41zm11.43 0 1.71 5.5h2.35l.77-2.25.74 2.25h2.25l1.9-5.5h-2.24l-.88 2.8-.87-2.8h-1.66l-.98 2.85-.84-2.84z" 
      filter="url(#a)" 
      opacity=".62"
      transform="translate(122.38 -129.54)"
    />
    <path fill="#1b3057" d="M7.84 33.08 6.99 40l.52 1.59h2.97a4.8 4.8 0 0 0 3.42-1.41c.35-.35.6-.83.86-1.28l1.6-.71h19.43c.26.55.48 1.13.88 1.57l.01.02.01.01a5.5 5.5 0 0 0 2.16 1.43c.77.28 1.5.37 2.27.37h2.17l.52-1.56L42.73 33z"/>
    <path fill="#243f72" d="M25.02 6.54 18.2 14.8l-6.3-6.9-2.16 22.73a.9.9 0 0 1-.9.83l-.94.01-.9 8.54h3.5a4.88 4.88 0 0 0 3.42-1.42c.35-.35.6-.82.87-1.28l1.59-.71h19.41c.27.55.49 1.13.88 1.58l.02.01.01.02a5.42 5.42 0 0 0 2.16 1.43c.77.28 1.5.37 2.27.37h2.7l-1.12-8.6h-1.03a.92.92 0 0 1-.91-.82L38.11 8.06l-6.06 6.74z"/>
    <path fill="#3978a8" d="m12.27 22.04-.2 2.04.37 1.27h25.6l.34-1.27-.28-2.04zm6.44 6.54-.24 5.09.04 1.15h1.97l.1-3.83c.14-.19.3-.34.48-.46a.9.9 0 0 1 .5-.2.4.4 0 0 1 .3.15c.09.09.13.24.12.45l-.06 2.74v1.15h2.03v-4.58l-1.69-1.5zm14.94-1.2.4 7.44h2.03l.13-1.15-.3-2.65.43-.49c.42-.48.56-.03.66.42l.48 3.87c.16 1.31.9 2.67 2.15 3.11.4.15.56.23 1.14.23l.35-1.07-.27-1.09c-.35 0-.62-.08-.8-.26-.16-.17-.27-.48-.33-.92l-.53-4.58zm-19.29 1.2-.58 6.06.1 1.12 2.04-.95.2-3.28c.06-.23.15-.42.27-.54.12-.14.27-.23.43-.3.17-.06.35-.09.56-.1l.65-.02.1-2zm-.7-1.07-2.48 7.5-1.27 1-.23 1.1.23 1.05h.57a2.54 2.54 0 0 0 1.67-.63c.22-.2.4-.45.54-.75.13-.29.21-.61.25-.98zm10.64 1.06 1.58 6.25h2.32l.65-2.64.82 2.64h2.2l1.21-6.25.08-1.22-2.64 3.27-3.34.05-2.97-3.32z"/>
    <path fill="#42cafd" d="m25.02 9.47-6.7 8.12-4.97-5.65-1.29 12.14h26.32l-1.61-12.14-4.83 5.65zM22.4 27.19a3.4 3.4 0 0 0-1.76.58l-.13-.44h-1.76l-.28 6.34h2.02l.1-3.9c.14-.19.3-.34.49-.47a.85.85 0 0 1 .5-.19c.1 0 .2.05.29.14.08.1.12.25.12.46l-.06 3.96h2.01V29c0-.3-.05-.58-.13-.8a1.47 1.47 0 0 0-.32-.57c-.14-.15-.3-.27-.48-.33a1.58 1.58 0 0 0-.6-.12zm14.87 0c-.27 0-.55.06-.84.19-.28.12-.56.3-.83.52l-.06-.57h-1.9l.55 6.34h2.01l-.4-3.87c.12-.2.26-.37.42-.5a.77.77 0 0 1 .47-.19c.12 0 .22.05.32.14.1.1.15.25.18.46l.46 3.96c.06.55.17 1.04.32 1.46a2.59 2.59 0 0 0 1.66 1.73c.4.16.9.24 1.49.24l-.32-2.22c-.35 0-.6-.09-.79-.27-.17-.17-.29-.49-.35-.94L39.04 29a2.57 2.57 0 0 0-.23-.8c-.1-.24-.24-.42-.4-.57a1.69 1.69 0 0 0-1.14-.45zm-19.2.13c-.23 0-.43.02-.6.05a1.34 1.34 0 0 0-.85.53c-.1.15-.2.33-.3.56h-.03l.07-1.13h-1.91l-.66 7.3 2.16-.96.21-3.35c.07-.24.16-.42.28-.55.12-.14.27-.24.43-.3.17-.06.35-.1.55-.1.2-.02.42-.02.65-.02l.1-2.03h-.1zm-4.39 0h-1.9L11 34c-.04.34-.11.57-.24.68a.7.7 0 0 1-.44.2h-.38l-.26 2.22h.8a2.5 2.5 0 0 0 1.68-.65 2.89 2.89 0 0 0 .8-1.77zm10.52 0 1.7 6.35h2.28l.63-2.69.84 2.69h2.18l1.31-6.34H31.1l-.63 3.14-.99-3.14h-1.52l-.8 3.19-.88-3.2z"/>
    <g>
      <path fill="#ffce00" d="m21.13 17.34 3.9-4.7 3.89 4.7-3.9 4.7z"/>
      <path fill="#f4b41b" d="m25.03 15.4 3.89 1.94-3.9 4.7z"/>
      <path fill="#f8f8f8" d="m25.03 12.64 3.89 4.7-3.9-1.93z"/>
      <path fill="#f47e1b" d="m21.13 17.34 3.9-1.94v6.64z"/>
    </g>
  </g>
</svg>