<svg fill="#94a3b820" xmlns="http://www.w3.org/2000/svg" xmlns:xlink="http://www.w3.org/1999/xlink" width="100%" height="100%">
  <defs>
    <pattern id="pttrn" width="24.44" height="14.4" patternUnits="userSpaceOnUse" patternTransform="translate(0,0) rotate(-13) scale(8)">
        <path id="a" d="m 8.16 0 l -0.61 0.73 l -0.5 -0.49 v 1 h 2.22 v -1 l -0.5 0.49 z m 4.03 1.48 c -0.13 0 -0.27 0.02 -0.42 0.06 c -0.15 0.04 -0.29 0.1 -0.42 0.18 l -0.07 -0.18 h -0.85 v 2.45 h 0.92 v -1.47 c 0.06 -0.07 0.14 -0.13 0.22 -0.18 c 0.08 -0.05 0.16 -0.08 0.23 -0.08 c 0.06 0 0.1 0.02 0.14 0.06 c 0.04 0.04 0.06 0.1 0.06 0.18 v 1.49 h 0.92 v -1.77 c 0 -0.12 -0.02 -0.23 -0.06 -0.32 c -0.04 -0.09 -0.09 -0.17 -0.16 -0.23 c -0.06 -0.06 -0.14 -0.11 -0.23 -0.14 c -0.09 -0.03 -0.19 -0.05 -0.29 -0.05 z m 7.2 0 c -0.13 0 -0.27 0.03 -0.41 0.08 c -0.14 0.05 -0.29 0.12 -0.43 0.21 v -0.23 h -0.93 v 2.45 h 0.92 v -1.46 c 0.06 -0.08 0.14 -0.14 0.22 -0.19 c 0.08 -0.05 0.16 -0.08 0.23 -0.08 c 0.06 0 0.1 0.02 0.14 0.05 c 0.04 0.04 0.06 0.1 0.06 0.18 v 1.49 c 0 0.2 0.02 0.38 0.07 0.53 c 0.05 0.15 0.12 0.28 0.22 0.38 c 0.11 0.1 0.25 0.18 0.42 0.23 c 0.17 0.05 0.39 0.08 0.65 0.08 v -0.78 c -0.16 0 -0.27 -0.03 -0.34 -0.1 c -0.07 -0.06 -0.1 -0.18 -0.1 -0.34 v -1.77 c 0 -0.12 -0.02 -0.23 -0.06 -0.32 c -0.04 -0.09 -0.09 -0.17 -0.16 -0.23 c -0.06 -0.06 -0.14 -0.11 -0.23 -0.14 c -0.09 -0.03 -0.19 -0.05 -0.29 -0.05 z m -9.29 0.05 c -0.11 0 -0.21 0.01 -0.29 0.02 c -0.09 0.01 -0.17 0.04 -0.23 0.08 c -0.06 0.03 -0.12 0.08 -0.17 0.14 c -0.05 0.06 -0.09 0.13 -0.13 0.22 h -0.01 v -0.46 h -0.92 l -0.03 2.8 l 0.95 -0.35 v -1.26 c 0.02 -0.09 0.06 -0.17 0.11 -0.22 c 0.05 -0.05 0.12 -0.09 0.19 -0.11 c 0.08 -0.03 0.16 -0.04 0.26 -0.04 c 0.1 -0.01 0.2 -0.01 0.31 -0.01 v -0.81 c -0.02 0 -0.03 0 -0.05 0 z m -3.05 0 l -0.03 2.57 c 0 0.12 -0.03 0.2 -0.08 0.25 c -0.02 0.02 -0.05 0.03 -0.07 0.04 c -0.03 0.01 -0.07 0.02 -0.12 0.02 l -0.17 0 v 0.78 l 0.36 0 c 0.14 0 0.28 -0.02 0.4 -0.06 c 0.12 -0.04 0.23 -0.09 0.32 -0.16 c 0.09 -0.07 0.16 -0.16 0.21 -0.27 c 0.05 -0.1 0.07 -0.22 0.08 -0.36 l 0.03 -2.81 z m 6.01 0 l 0.76 2.45 h 1.05 l 0.34 -1 l 0.33 1 h 1 l 0.84 -2.45 h -0.99 l -0.39 1.25 l -0.39 -1.25 h -0.74 l -0.44 1.26 l -0.38 -1.26 z"/>
        <path id="b" d="m 1.3 1.3 l -0.71 0.84 l -0.58 -0.57 v 1.16 h 2.58 v -1.16 l -0.58 0.57 z m -1.29 1.69 v 0.73 h 2.58 v -0.73 z"/>
        <use xlink:href="#a" x="12.25" y="7.2"/>
        <use xlink:href="#a" x="-12.2" y="7.2"/>
        <use xlink:href="#b" x="12.25" y="7.2"/>
    </pattern>
  </defs>
  <rect x="0" y="0" width="100%" height="100%" fill="url(#pttrn)" />
</svg>